<?xml version="1.0" encoding="UTF-8"?>
<!DOCTYPE svg PUBLIC "-//W3C//DTD SVG 1.1//EN" "http://www.w3.org/Graphics/SVG/1.1/DTD/svg11.dtd">
<svg xmlns="http://www.w3.org/2000/svg" version="1.1" width="900px" height="900px" style="shape-rendering:geometricPrecision; text-rendering:geometricPrecision; image-rendering:optimizeQuality; fill-rule:evenodd; clip-rule:evenodd" xmlns:xlink="http://www.w3.org/1999/xlink">
<g><path style="opacity:1" fill="#3B7FEE" d="M -0.5,-0.5 C 299.5,-0.5 599.5,-0.5 899.5,-0.5C 899.5,299.5 899.5,599.5 899.5,899.5C 599.5,899.5 299.5,899.5 -0.5,899.5C -0.5,599.5 -0.5,299.5 -0.5,-0.5 Z"/></g>
<g><path style="opacity:1" fill="#ffffff" d="M 690.5,233.5 C 691.431,244.195 692.597,254.862 694,265.5C 694.5,280.83 694.667,296.163 694.5,311.5C 690.124,362.496 671.624,407.496 639,446.5C 634.524,452.762 632.357,459.762 632.5,467.5C 642.388,543.641 623.222,611.308 575,670.5C 567.059,679.282 557.226,682.448 545.5,680C 488.014,662.814 442.848,629.314 410,579.5C 400.475,562.45 391.475,545.116 383,527.5C 378.425,522.254 373.258,517.754 367.5,514C 294.761,482.593 247.594,428.759 226,352.5C 224.43,343.925 225.763,335.925 230,328.5C 270.287,288.442 318.787,265.109 375.5,258.5C 395.242,258.065 414.909,259.065 434.5,261.5C 437.025,261.497 439.359,261.163 441.5,260.5C 446.293,259.771 450.626,257.937 454.5,255C 492.448,220.706 537.115,201.039 588.5,196C 605.475,194.517 622.475,194.184 639.5,195C 653.291,196.275 665.958,200.608 677.5,208C 685.688,214.543 690.021,223.043 690.5,233.5 Z"/></g>
<g><path style="opacity:1" fill="#3B7FEE" d="M 591.5,247.5 C 606.316,246.846 620.983,248.012 635.5,251C 640.96,253.807 644.127,258.307 645,264.5C 648.737,311.883 637.904,355.549 612.5,395.5C 594.964,361.454 571.297,332.287 541.5,308C 528.638,298.737 515.305,290.237 501.5,282.5C 528.677,263.334 558.677,251.668 591.5,247.5 Z"/></g>
<g><path style="opacity:1" fill="#3B7FEE" d="M 441.5,260.5 C 439.359,261.163 437.025,261.497 434.5,261.5C 414.909,259.065 395.242,258.065 375.5,258.5C 375.611,257.883 375.944,257.383 376.5,257C 390.22,256.181 403.887,256.681 417.5,258.5C 423.081,258.283 428.581,257.616 434,256.5C 436.167,256.667 438.333,256.833 440.5,257C 440.167,257.333 439.833,257.667 439.5,258C 436.167,258.333 432.833,258.667 429.5,259C 433.363,260.354 437.363,260.854 441.5,260.5 Z"/></g>
<g><path style="opacity:1" fill="#3B7FEE" d="M 690.5,233.5 C 692.549,243.281 694.049,253.281 695,263.5C 695.828,279.672 695.661,295.672 694.5,311.5C 694.667,296.163 694.5,280.83 694,265.5C 692.597,254.862 691.431,244.195 690.5,233.5 Z"/></g>
<g><path style="opacity:1" fill="#3B7FEE" d="M 400.5,317.5 C 400.421,316.07 400.754,314.736 401.5,313.5C 397.167,313.167 392.833,312.833 388.5,312.5C 376.088,313.641 363.754,314.974 351.5,316.5C 368.409,311.994 385.742,310.327 403.5,311.5C 403.346,313.97 402.346,315.97 400.5,317.5 Z"/></g>
<g><path style="opacity:1" fill="#3B7FEE" d="M 400.5,317.5 C 377.867,360.985 367.2,407.318 368.5,456.5C 327.568,433.453 298.901,399.953 282.5,356C 283.145,351.337 285.478,347.67 289.5,345C 308.517,331.938 329.183,322.438 351.5,316.5C 363.754,314.974 376.088,313.641 388.5,312.5C 392.833,312.833 397.167,313.167 401.5,313.5C 400.754,314.736 400.421,316.07 400.5,317.5 Z"/></g>
<g><path style="opacity:1" fill="#3B7FEE" d="M 459.5,326.5 C 463.514,326.334 467.514,326.501 471.5,327C 516.733,347.568 549.233,380.734 569,426.5C 572.057,434.661 570.223,441.495 563.5,447C 523.647,474.44 479.647,485.107 431.5,479C 425.734,476.237 422.234,471.737 421,465.5C 415.582,418.514 425.582,375.18 451,335.5C 453.362,331.973 456.196,328.973 459.5,326.5 Z"/></g>
<g><path style="opacity:1" fill="#3B7FEE" d="M 581.5,496.5 C 582.5,496.5 583.5,496.5 584.5,496.5C 587.021,540.421 575.855,580.421 551,616.5C 548.323,620.338 544.656,622.005 540,621.5C 536.254,621.675 532.754,620.842 529.5,619C 490.863,600.03 461.863,571.363 442.5,533C 492.369,533.784 538.703,521.618 581.5,496.5 Z"/></g>
<g><path style="opacity:1" fill="#ffffff" d="M 295.5,508.5 C 327.821,507.915 354.321,519.915 375,544.5C 385.41,558.391 391.076,574.058 392,591.5C 394.663,633.009 377.83,663.843 341.5,684C 319.616,695.639 296.283,702.305 271.5,704C 251.423,704.998 231.423,704.332 211.5,702C 208.333,700.833 206.167,698.667 205,695.5C 203.706,673.179 203.372,650.845 204,628.5C 206.075,599.942 214.742,573.608 230,549.5C 246.122,526.514 267.956,512.847 295.5,508.5 Z"/></g>
<g><path style="opacity:1" fill="#3B7FEE" d="M 297.5,560.5 C 320.576,558.426 335.409,568.426 342,590.5C 344.197,608.244 338.364,622.744 324.5,634C 303.399,648.556 280.066,655.556 254.5,655C 252.951,653.786 251.785,652.286 251,650.5C 249.855,625.075 256.188,601.741 270,580.5C 277.112,570.871 286.279,564.204 297.5,560.5 Z"/></g>
</svg>
