<svg xmlns="http://www.w3.org/2000/svg" xmlns:xlink="http://www.w3.org/1999/xlink" version="1.1" width="17pt" height="17pt" viewBox="0 0 17 17">
<path transform="matrix(1,0,0,-1,1.327637,16.231659)" d="M.266311 .559793V.759794L.265795 .759793 .266311 .559793ZM.013968 .910419-.175391 .974788-.175516 .97442 .013968 .910419ZM1.063187 3.996981 1.252545 3.932612 1.282414 4.020479 1.234601 4.100019 1.063187 3.996981ZM2.125686 12.778543 1.984578 12.92028 1.983792 12.91949 2.125686 12.778543ZM7.172562 14.862457V15.062457 14.862457ZM12.219438 12.778543 12.361872 12.918958 12.360544 12.920279 12.219438 12.778543ZM4.043499 1.295575 4.129579 1.476103 4.069754 1.504629 4.004734 1.491782 4.043499 1.295575ZM.319436 .559793V.359794H.339005L.358202 .363586 .319436 .559793ZM4.078031 1.848075 4.07923 2.048071 4.051358 2.048238 4.024503 2.040778 4.078031 1.848075ZM4.197562 1.818856 4.106357 1.64085 4.108292 1.639885 4.197562 1.818856ZM11.855532 12.414638 11.997458 12.555554 11.996967 12.556044 11.855532 12.414638ZM7.172562 14.354671V14.154671 14.354671ZM2.489593 12.414638 2.348155 12.556046 2.347436 12.55532 2.489593 12.414638ZM1.586468 4.180263 1.417198 4.073736 1.417386 4.07344 1.586468 4.180263ZM1.61303 3.951825 1.423946 4.017002 1.423639 4.016099 1.61303 3.951825ZM.667405 1.165419 .478014 1.229692 .366681 .901635 .70645 .969267 .667405 1.165419ZM4.030218 1.834793 4.069263 1.638641 4.076568 1.640096 4.083746 1.64209 4.030218 1.834793ZM.265795 .759793C.25536 .759766 .245069 .762228 .235776 .766974L.053839 .410746C.119775 .377069 .192791 .359603 .266828 .359795L.265795 .759793ZM.235776 .766974C.226484 .77172 .218456 .778614 .21236 .787084L-.1123 .553427C-.069052 .493335-.012097 .444421 .053839 .410746L.235776 .766974ZM.21236 .787084C.206264 .795554 .202277 .805354 .200728 .815673L-.194838 .756275C-.183843 .683058-.155548 .613519-.1123 .553427L.21236 .787084ZM.200728 .815673C.199178 .825992 .200112 .836532 .203451 .846418L-.175516 .97442C-.199208 .904275-.205832 .829492-.194838 .756275L.200728 .815673ZM.203326 .846049 1.252545 3.932612 .873828 4.06135-.175391 .974788 .203326 .846049ZM1.234601 4.100019C.432077 5.435096 .097906 6.999756 .285013 8.546192L-.112091 8.594238C-.309892 6.959414 .043379 5.305326 .891772 3.893942L1.234601 4.100019ZM.285013 8.546192C.472119 10.092628 1.169808 11.532441 2.267581 12.637596L1.983792 12.91949C.823275 11.751168 .08571 10.229063-.112091 8.594238L.285013 8.546192ZM2.266793 12.636808C3.569886 13.934119 5.333794 14.662457 7.172562 14.662457V15.062457C5.228015 15.062457 3.362636 14.29222 1.98458 12.920279L2.266793 12.636808ZM7.172562 14.662457C9.011331 14.662457 10.775237 13.934119 12.078331 12.636808L12.360544 12.920279C10.982488 14.29222 9.117109 15.062457 7.172562 15.062457V14.662457ZM12.077009 12.638136C13.22571 11.472911 13.926877 9.940041 14.057243 8.309009L14.455972 8.340878C14.318109 10.065702 13.576621 11.68672 12.361865 12.918951L12.077009 12.638136ZM14.057243 8.309009C14.18761 6.677977 13.738831 5.053193 12.789803 3.7203L13.115647 3.488297C14.119249 4.897838 14.593835 6.616055 14.455972 8.340878L14.057243 8.309009ZM12.789803 3.7203C11.840775 2.387405 10.45225 1.431726 8.868334 1.021274L8.968675 .634063C10.643673 1.06812 12.112045 2.078754 13.115647 3.488297L12.789803 3.7203ZM8.868334 1.021274C7.284418 .61082 5.606506 .771867 4.129579 1.476103L3.957419 1.115047C5.519276 .370315 7.293677 .200006 8.968675 .634063L8.868334 1.021274ZM4.004734 1.491782 .280671 .756001 .358202 .363586 4.082264 1.099368 4.004734 1.491782ZM.319436 .759793H.266311V.359794H.319436V.759793ZM4.076831 1.648078C4.087107 1.648017 4.097221 1.645544 4.106362 1.640861L4.288761 1.996853C4.223886 2.030092 4.152117 2.047634 4.07923 2.048071L4.076831 1.648078ZM4.108292 1.639885C5.556052 .91775 7.213275 .733428 8.784328 1.119799L8.688802 1.508224C7.20983 1.1445 5.649738 1.318019 4.286831 1.997828L4.108292 1.639885ZM8.784328 1.119799C10.355381 1.506169 11.738081 2.438102 12.685771 3.749351L12.361578 3.983657C11.469434 2.749261 10.167774 1.871949 8.688802 1.508224L8.784328 1.119799ZM12.685771 3.749351C13.63346 5.0606 14.084498 6.66588 13.958426 8.278826L13.559643 8.247656C13.678326 6.729246 13.253722 5.218053 12.361578 3.983657L12.685771 3.749351ZM13.958426 8.278826C13.832355 9.891771 13.137372 11.407476 11.997457 12.555553L11.713607 12.273722C12.786711 11.192934 13.44096 9.766066 13.559643 8.247656L13.958426 8.278826ZM11.996967 12.556044C11.363464 13.189678 10.611346 13.692311 9.783567 14.035239L9.630475 13.665695C10.409719 13.342875 11.117737 12.869713 11.714095 12.273231L11.996967 12.556044ZM9.783567 14.035239C8.955788 14.378167 8.068563 14.55467 7.172562 14.55467V14.154671C8.016027 14.154671 8.851232 13.988516 9.630475 13.665695L9.783567 14.035239ZM7.172562 14.55467C6.276561 14.55467 5.389336 14.378167 4.561557 14.035239L4.714649 13.665695C5.493893 13.988516 6.329097 14.154671 7.172562 14.154671V14.55467ZM4.561557 14.035239C3.733778 13.692311 2.981659 13.189678 2.348157 12.556044L2.631029 12.273231C3.227387 12.869713 3.935406 13.342875 4.714649 13.665695L4.561557 14.035239ZM2.347436 12.55532C1.257702 11.454171 .572656 10.016667 .403755 8.476692L.801371 8.433083C.960426 9.883287 1.605539 11.236996 2.631749 12.273954L2.347436 12.55532ZM.403755 8.476692C.234855 6.936718 .592041 5.384906 1.417198 4.073736L1.755737 4.286789C.978681 5.521526 .642316 6.982879 .801371 8.433083L.403755 8.476692ZM1.417386 4.07344C1.422638 4.065125 1.425956 4.055737 1.427091 4.045967L1.824414 4.092168C1.816355 4.161479 1.79282 4.228094 1.75555 4.287086L1.417386 4.07344ZM1.427091 4.045967C1.428227 4.036199 1.427153 4.026299 1.423948 4.017001L1.802112 3.886648C1.824852 3.952619 1.832474 4.022856 1.824414 4.092168L1.427091 4.045967ZM1.423639 4.016099 .478014 1.229692 .856796 1.101145 1.802421 3.887551 1.423639 4.016099ZM.70645 .969267 4.069263 1.638641 3.991174 2.030946 .628361 1.36157 .70645 .969267ZM4.083746 1.64209 4.131558 1.655371 4.024503 2.040778 3.97669 2.027497 4.083746 1.64209Z" fill="#3cc952"/>
<path transform="matrix(1,0,0,-1,1.327637,16.231659)" d="M.266311 .559793C.224075 .559685 .182422 .569649 .144808 .58886 .107193 .60807 .074702 .635974 .05003 .670256 .025358 .704536 .009217 .744205 .002945 .785974-.003327 .827742 .000452 .870403 .013968 .910419L1.063187 3.996981C.237728 5.370211-.105993 6.979585 .086461 8.570215 .278915 10.160845 .996542 11.641805 2.125686 12.778543 3.466261 14.11317 5.280905 14.862457 7.172562 14.862457 9.064219 14.862457 10.878862 14.11317 12.219438 12.778543 13.401165 11.579815 14.122493 10.002872 14.256608 8.324944 14.390722 6.647016 13.92904 4.975515 12.952725 3.604298 11.97641 2.23308 10.547961 1.249923 8.918505 .827668 7.289047 .405414 5.562891 .571091 4.043499 1.295575L.319436 .559793H.266311ZM4.078031 1.848075C4.119612 1.847825 4.160554 1.837818 4.197562 1.818856 5.602895 1.117885 7.211553 .938964 8.736566 1.314012 10.261578 1.689059 11.603758 2.593681 12.523674 3.866504 13.443591 5.139326 13.881413 6.697563 13.759035 8.263241 13.636658 9.828918 12.962042 11.300205 11.855532 12.414638 11.240601 13.029696 10.510532 13.517593 9.707021 13.850468 8.903509 14.183341 8.042295 14.354671 7.172562 14.354671 6.302829 14.354671 5.441615 14.183341 4.638103 13.850468 3.834592 13.517593 3.104523 13.029696 2.489593 12.414638 1.43162 11.345583 .766541 9.949978 .602563 8.454887 .438585 6.959798 .785361 5.453216 1.586468 4.180263 1.607729 4.146609 1.621155 4.108608 1.625753 4.069068 1.630351 4.029527 1.626003 3.989459 1.61303 3.951825L.667405 1.165419 4.030218 1.834793 4.078031 1.848075Z" fill="#3cc952"/>
<path transform="matrix(1,0,0,-1,4.41748,12.633392)" d="M5.9872 .414632 5.980103 .614542 5.976325 .614336 5.9872 .414632ZM5.742826 .414632 5.721077 .21552 5.731951 .214928 5.742826 .414632ZM2.053294 2.454632 1.911865 2.313203 1.913394 2.311707 2.053294 2.454632ZM.013294 6.144163 .212152 6.165509 .212128 6.165735 .013294 6.144163ZM.972201 8.31432 1.101448 8.161685 1.102522 8.162608 .972201 8.31432ZM1.503451 8.497601 1.494399 8.297791 1.496788 8.297711 1.503451 8.497601ZM2.220638 8.473695 2.228039 8.673559 2.227301 8.673583 2.220638 8.473695ZM2.459701 8.301039 2.272298 8.231174 2.27258 8.230427 2.459701 8.301039ZM2.603138 5.326038 2.732679 5.173638 2.734612 5.175324 2.603138 5.326038ZM2.435794 5.171976 2.290154 5.309049 2.190653 5.203329 2.260344 5.07597 2.435794 5.171976ZM3.394701 3.801351 3.244372 3.669437 3.252986 3.65962 3.262804 3.651007 3.394701 3.801351ZM4.765326 2.842444 4.6693 2.667005 4.800769 2.595046 4.906747 2.701023 4.765326 2.842444ZM4.919388 3.009789 5.068449 2.876419 5.070102 2.878314 4.919388 3.009789ZM7.90767 2.866351 7.837058 2.679229 7.837807 2.678949 7.90767 2.866351ZM8.080325 2.627289 8.280215 2.633952 8.280189 2.63469 8.080325 2.627289ZM8.104232 1.910101 8.304155 1.91573 8.30412 1.916764 8.104232 1.910101ZM7.92095 1.378851 7.76702 1.506564 7.765585 1.504794 7.92095 1.378851ZM2.430482 2.837132 2.478983 3.031162 1.778518 3.206253 2.289061 2.69571 2.430482 2.837132ZM5.801263 .948538 5.779642 .749709 5.780106 .74966 5.801263 .948538ZM7.509232 1.721507 7.661788 1.592065 7.66512 1.59621 7.509232 1.721507ZM7.567669 1.89682 7.767557 1.903524 7.767547 1.903816 7.567669 1.89682ZM7.549075 2.42807 7.748953 2.435066 7.744397 2.565224 7.623518 2.613699 7.549075 2.42807ZM5.710951 3.007132 5.756348 3.201911 5.73395 3.207131H5.710951V3.007132ZM2.260482 5.727132 2.127118 5.876185 2.125853 5.875034 2.260482 5.727132ZM2.611107 6.112288 2.810285 6.094181 2.813205 6.126296 2.805883 6.157701 2.611107 6.112288ZM2.032044 7.950413 2.21768 8.024841 2.169209 8.145735 2.03904 8.150291 2.032044 7.950413ZM1.500794 7.969007 1.50779 8.168885 1.507499 8.168895 1.500794 7.969007ZM1.325482 7.910569 1.200157 8.066493 1.196844 8.06371 1.325482 7.910569ZM.552513 6.205256 .751356 6.226742 .751319 6.227077 .552513 6.205256ZM2.441107 2.834476 2.392606 2.640446 3.077112 2.469344 2.584212 2.974194 2.441107 2.834476ZM5.976325 .614336C5.902172 .610298 5.827854 .610298 5.7537 .614336L5.731951 .214928C5.820593 .210101 5.909432 .210101 5.998075 .214928L5.976325 .614336ZM5.764542 .61345C5.105668 .685417 4.340374 1.052397 3.663795 1.477478 2.991321 1.89998 2.433029 2.3628 2.193195 2.597558L1.913394 2.311707C2.175591 2.055058 2.75683 1.57491 3.450997 1.138779 4.141058 .705227 4.969514 .29791 5.721109 .215815L5.764542 .61345ZM2.194716 2.596054C1.961259 2.82951 1.498194 3.387014 1.0752 4.061059 .649814 4.738915 .282865 5.506765 .212152 6.165509L-.185563 6.122817C-.10487 5.371092 .302478 4.53988 .736389 3.848439 1.172691 3.153188 1.653923 2.57116 1.911873 2.31321L2.194716 2.596054ZM.212128 6.165735C.101226 7.187963 .784136 7.893 1.101444 8.161689L.842957 8.466949C.501516 8.177826-.319012 7.352864-.185539 6.122592L.212128 6.165735ZM1.102522 8.162608C1.211165 8.255933 1.351323 8.304288 1.494399 8.297806L1.512502 8.697396C1.267655 8.708488 1.027801 8.625739 .841879 8.466031L1.102522 8.162608ZM1.496788 8.297711 2.213975 8.273806 2.227301 8.673583 1.510114 8.69749 1.496788 8.297711ZM2.213237 8.273831C2.226195 8.273352 2.238719 8.269044 2.249231 8.261453L2.483428 8.585724C2.408845 8.639589 2.319977 8.670153 2.228039 8.673557L2.213237 8.273831ZM2.249231 8.261453C2.259743 8.25386 2.26777 8.243325 2.2723 8.231175L2.647102 8.370901C2.614964 8.457107 2.55801 8.531858 2.483428 8.585724L2.249231 8.261453ZM2.27258 8.230427C2.351799 8.020498 2.519403 7.566481 2.666934 7.120596 2.740762 6.897465 2.808821 6.678593 2.858201 6.494385 2.909711 6.302233 2.934388 6.170514 2.934388 6.109632H3.334388C3.334388 6.230704 3.294652 6.411094 3.24456 6.597956 3.192338 6.792761 3.121608 7.019807 3.046686 7.246246 2.896717 7.699502 2.726977 8.159235 2.646821 8.37165L2.27258 8.230427ZM2.934388 6.109632C2.934388 6.012376 2.892065 5.913776 2.805357 5.803834 2.717296 5.692174 2.599212 5.588017 2.471664 5.476752L2.734612 5.175324C2.856752 5.281872 3.004293 5.410137 3.119435 5.556133 3.235931 5.703847 3.334388 5.888139 3.334388 6.109632H2.934388ZM2.473608 5.478426C2.419962 5.432827 2.340875 5.362939 2.290154 5.309049L2.581434 5.034903C2.615714 5.071325 2.680064 5.128938 2.732668 5.17365L2.473608 5.478426ZM2.260344 5.07597C2.535842 4.572496 2.865832 4.100821 3.244372 3.669437L3.545029 3.933265C3.185817 4.342623 2.872676 4.790215 2.611245 5.267982L2.260344 5.07597ZM3.262804 3.651007C3.694218 3.272529 4.165874 2.942552 4.6693 2.667005L4.861351 3.017884C4.383604 3.279376 3.936005 3.592522 3.526597 3.951695L3.262804 3.651007ZM4.906747 2.701023C4.95686 2.751136 5.025268 2.828182 5.068437 2.87643L4.77034 3.143147C4.723196 3.090457 4.664103 3.024065 4.623904 2.983866L4.906747 2.701023ZM5.070102 2.878314C5.181383 3.005881 5.285185 3.123505 5.397865 3.211241 5.508101 3.297073 5.61051 3.341038 5.716263 3.341038V3.741038C5.489985 3.741038 5.302863 3.644222 5.152122 3.526852 5.003826 3.411385 4.875206 3.263383 4.768674 3.141262L5.070102 2.878314ZM5.716263 3.341038C5.777145 3.341038 5.908864 3.316361 6.101016 3.264851 6.285224 3.215471 6.504096 3.147412 6.727228 3.073584 7.173112 2.926054 7.627129 2.758449 7.837058 2.67923L7.978281 3.053471C7.765866 3.133627 7.306134 3.303367 6.852877 3.453337 6.626438 3.528259 6.399392 3.598989 6.204587 3.65121 6.017725 3.701302 5.837335 3.741038 5.716263 3.741038V3.341038ZM7.837807 2.678949C7.849956 2.67442 7.860491 2.666394 7.868083 2.655882L8.192354 2.890078C8.13849 2.964661 8.063738 3.021615 7.977532 3.053751L7.837807 2.678949ZM7.868083 2.655882C7.875675 2.64537 7.879982 2.632844 7.880462 2.619888L8.280189 2.63469C8.276784 2.726628 8.24622 2.815496 8.192354 2.890078L7.868083 2.655882ZM7.880436 2.620626 7.904343 1.903438 8.30412 1.916764 8.280214 2.633952 7.880436 2.620626ZM7.904311 1.904472C7.908391 1.759563 7.859594 1.618122 7.76703 1.506556L8.074871 1.251147C8.229468 1.437481 8.310966 1.673709 8.304152 1.91573L7.904311 1.904472ZM7.765585 1.504794C7.548864 1.237444 7.277361 1.019646 6.969368 .866072L7.14786 .508105C7.507005 .687184 7.8236 .941155 8.076316 1.252908L7.765585 1.504794ZM6.969368 .866072C6.661375 .712499 6.324045 .626717 5.980104 .614506L5.994296 .214758C6.39536 .228997 6.788714 .329025 7.14786 .508105L6.969368 .866072ZM2.289061 2.69571C2.520687 2.464084 3.064148 2.016899 3.706041 1.610322 4.343363 1.20664 5.108954 .822642 5.779642 .74971L5.822884 1.147366C5.247791 1.209902 4.547132 1.551061 3.920079 1.948238 3.297598 2.34252 2.778558 2.771898 2.571903 2.978553L2.289061 2.69571ZM5.780106 .74966C6.759327 .645488 7.430322 1.319375 7.661734 1.592111L7.35673 1.850902C7.141892 1.5977 6.591012 1.06565 5.822421 1.147416L5.780106 .74966ZM7.66512 1.59621C7.734948 1.683088 7.771293 1.79213 7.767557 1.903524L7.367781 1.890116C7.368308 1.874413 7.363184 1.859045 7.353344 1.846802L7.66512 1.59621ZM7.767547 1.903816 7.748953 2.435066 7.349197 2.421074 7.367791 1.889824 7.767547 1.903816ZM7.623518 2.613699C7.016981 2.856937 6.392782 3.053577 5.756348 3.201911L5.665553 2.812352C6.282187 2.668633 6.886966 2.478111 7.474633 2.242441L7.623518 2.613699ZM5.710951 3.207131C5.655925 3.207131 5.611036 3.188462 5.584947 3.175543 5.556033 3.161225 5.529721 3.143497 5.507611 3.126915 5.463315 3.093693 5.418483 3.051805 5.378629 3.011773 5.298443 2.93123 5.218246 2.837493 5.17504 2.787934L5.476549 2.52508C5.523655 2.579113 5.593536 2.66069 5.6621 2.729561 5.696621 2.764235 5.725832 2.79058 5.747611 2.806914 5.758538 2.81511 5.76327 2.817491 5.762455 2.817086 5.761781 2.816752 5.757513 2.814659 5.750122 2.812482 5.742951 2.81037 5.729323 2.807132 5.710951 2.807132V3.207131ZM5.17504 2.787934C5.081519 2.68066 5.013149 2.603893 4.946402 2.551337 4.884932 2.502935 4.839678 2.487288 4.794544 2.487288V2.087288C4.956598 2.087288 5.086657 2.152656 5.193858 2.237067 5.295784 2.317323 5.389445 2.425166 5.476549 2.52508L5.17504 2.787934ZM4.794544 2.487288C4.794581 2.487288 4.792387 2.487298 4.787579 2.487956 4.782831 2.488604 4.77635 2.48977 4.767978 2.491753 4.750988 2.495777 4.729169 2.502456 4.702271 2.512531 4.648191 2.532787 4.581795 2.563652 4.505205 2.604244 4.35226 2.685305 4.171974 2.798025 3.990482 2.92125 3.624019 3.170062 3.276736 3.445127 3.158934 3.562928L2.876092 3.280086C3.021259 3.134918 3.393819 2.842874 3.765794 2.590319 3.953521 2.46286 4.147101 2.341331 4.317887 2.250815 4.403163 2.205619 4.486098 2.166363 4.561966 2.137945 4.633842 2.111023 4.716094 2.087288 4.794544 2.087288V2.487288ZM3.158934 3.562928C3.041707 3.680156 2.768915 4.028765 2.521748 4.39638 2.399464 4.578255 2.287592 4.758703 2.207134 4.911139 2.166834 4.98749 2.136189 5.05349 2.116086 5.106982 2.106084 5.133595 2.099484 5.155028 2.09553 5.171552 2.091406 5.188782 2.091263 5.196145 2.091263 5.195882H1.691263C1.691263 5.118338 1.715137 5.036822 1.741656 4.96626 1.76979 4.891402 1.808644 4.809191 1.853386 4.724423 1.94301 4.554623 2.063394 4.361204 2.189801 4.173196 2.440017 3.801046 2.73035 3.425827 2.876092 3.280086L3.158934 3.562928ZM2.091263 5.195882C2.091263 5.235191 2.105333 5.27829 2.155312 5.341763 2.209121 5.410101 2.286809 5.480648 2.395111 5.57923L2.125853 5.875034C2.026967 5.785023 1.920045 5.689553 1.841042 5.58922 1.758209 5.484021 1.691263 5.355792 1.691263 5.195882H2.091263ZM2.393841 5.578084C2.441074 5.620345 2.532927 5.700133 2.612079 5.779285 2.651642 5.818849 2.692848 5.862951 2.726026 5.906338 2.74262 5.928039 2.760012 5.953176 2.774468 5.980356 2.787664 6.005164 2.805834 6.045219 2.810285 6.094181L2.411928 6.130396C2.414387 6.157444 2.42326 6.171849 2.421317 6.168197 2.420635 6.166914 2.417047 6.160779 2.408283 6.149318 2.390743 6.126381 2.363716 6.096607 2.329236 6.062128 2.260302 5.993193 2.180827 5.924232 2.127123 5.87618L2.393841 5.578084ZM2.805883 6.157701C2.657501 6.794111 2.460865 7.418296 2.21768 8.024841L1.846409 7.875986C2.082036 7.288292 2.27256 6.683506 2.416331 6.066875L2.805883 6.157701ZM2.03904 8.150291 1.50779 8.168884 1.493799 7.769129 2.025049 7.750536 2.03904 8.150291ZM1.507499 8.168895C1.396102 8.172631 1.287061 8.136283 1.200186 8.066457L1.450778 7.754682C1.463023 7.764524 1.478391 7.769646 1.49409 7.769119L1.507499 8.168895ZM1.196844 8.06371C.920909 7.831925 .246453 7.160637 .353707 6.183436L.751319 6.227077C.667323 6.992376 1.198805 7.542964 1.45412 7.757428L1.196844 8.06371ZM.35367 6.183772C.426589 5.508914 .810694 4.745885 1.214475 4.11075 1.621419 3.470641 2.068099 2.930235 2.298002 2.694758L2.584212 2.974194C2.375834 3.187624 1.945951 3.705733 1.552035 4.32535 1.154957 4.949941 .813905 5.647849 .751355 6.226742L.35367 6.183772ZM2.489607 3.028506 2.478983 3.031162 2.381981 2.643102 2.392606 2.640446 2.489607 3.028506Z" fill="#3cc952"/>
<path transform="matrix(1,0,0,-1,4.41748,12.633392)" d="M5.9872 .414632C5.905802 .410199 5.824224 .410199 5.742826 .414632 4.332356 .568695 2.555326 1.963226 2.053294 2.454632 1.561888 2.946038 .164701 4.733694 .013294 6.144163-.108893 7.270413 .642826 8.035413 .972201 8.31432 1.119483 8.440836 1.309489 8.506388 1.503451 8.497601L2.220638 8.473695C2.273086 8.471752 2.323782 8.454317 2.366329 8.423588 2.408877 8.392859 2.441367 8.350216 2.459701 8.301039 2.619076 7.878695 3.134388 6.473538 3.134388 6.109632 3.134388 5.790882 2.852826 5.543851 2.603138 5.326038 2.550013 5.280882 2.478294 5.217132 2.435794 5.171976 2.704259 4.681355 3.025824 4.221722 3.394701 3.801351 3.815111 3.432525 4.274739 3.110964 4.765326 2.842444 4.810482 2.8876 4.874232 2.95932 4.919388 3.009789 5.137201 3.259476 5.384232 3.541039 5.716263 3.541039 6.08017 3.541039 7.485326 3.025726 7.90767 2.866351 7.956847 2.848017 7.99949 2.815527 8.030218 2.77298 8.060947 2.730433 8.078383 2.679736 8.080325 2.627289L8.104232 1.910101C8.109678 1.716636 8.044531 1.527802 7.92095 1.378851 7.686232 1.0893 7.392183 .853415 7.058614 .687088 6.725045 .520762 6.359702 .427857 5.9872 .414632ZM2.430482 2.837132C2.868763 2.39885 4.555482 1.084006 5.801263 .948538 6.675169 .855569 7.286107 1.458538 7.509232 1.721507 7.549066 1.771066 7.5698 1.833272 7.567669 1.89682L7.549075 2.42807C6.951973 2.667524 6.337485 2.861105 5.710951 3.007132 5.625951 3.007132 5.416107 2.7601 5.325794 2.656507 5.145169 2.449319 5.001732 2.287288 4.794544 2.287288 4.457201 2.287288 3.280482 3.158538 3.017513 3.421507 2.754544 3.684476 1.891263 4.869164 1.891263 5.195882 1.891263 5.395101 2.053294 5.538538 2.260482 5.727132 2.361419 5.817445 2.603138 6.024632 2.611107 6.112288 2.46503 6.738809 2.27145 7.353294 2.032044 7.950413L1.500794 7.969007C1.437246 7.971138 1.375042 7.950403 1.325482 7.910569 1.059857 7.687444 .456888 7.076507 .552513 6.205256 .687982 4.951507 2.002825 3.283382 2.441107 2.834476L2.430482 2.837132Z" fill="#3cc952"/>
</svg>
